<?xml version="1.0" encoding="UTF-8"?>
<svg id="Layer_2" xmlns="http://www.w3.org/2000/svg" viewBox="0 0 512 512">
  <g id="Layer_2-2" data-name="Layer_2">
    <g>
      <path d="M305,256c0,27.06-21.94,49-49,49s-49-21.94-49-49,21.94-49,49-49,49,21.94,49,49Z"/>
      <path d="M370.59,169.3c-2.36-6.38-6.11-12.16-11-16.9-4.74-4.88-10.52-8.64-16.9-11-5.18-2.01-12.96-4.41-27.29-5.06-15.5-.71-20.15-.86-59.4-.86s-43.9.15-59.4.86c-14.33.66-22.12,3.05-27.29,5.06-6.39,2.36-12.16,6.11-16.9,11-4.88,4.74-8.64,10.52-11,16.9-2.01,5.18-4.41,12.96-5.06,27.3-.71,15.5-.86,20.15-.86,59.4s.15,43.9.86,59.4c.65,14.33,3.05,22.11,5.06,27.29,2.36,6.39,6.11,12.16,11,16.9,4.74,4.88,10.52,8.64,16.9,11,5.18,2.02,12.96,4.41,27.3,5.06,15.5.71,20.14.86,59.4.86s43.91-.15,59.4-.86c14.33-.65,22.12-3.05,27.3-5.06,12.82-4.95,22.95-15.08,27.9-27.9,2.01-5.18,4.41-12.96,5.06-27.29.71-15.5.86-20.15.86-59.4s-.15-43.9-.86-59.4c-.65-14.33-3.05-22.12-5.06-27.3ZM256,331.48c-41.69,0-75.49-33.79-75.49-75.48s33.8-75.48,75.49-75.48,75.48,33.79,75.48,75.48-33.8,75.48-75.48,75.48ZM334.47,195.17c-9.74,0-17.64-7.9-17.64-17.64s7.9-17.64,17.64-17.64,17.64,7.9,17.64,17.64c0,9.74-7.9,17.64-17.64,17.64Z"/>
      <path d="M256,0C114.64,0,0,114.64,0,256s114.64,256,256,256,256-114.64,256-256S397.36,0,256,0ZM402.11,316.61c-.71,15.65-3.2,26.33-6.83,35.68-7.64,19.75-23.25,35.36-42.99,42.99-9.35,3.63-20.04,6.12-35.68,6.83-15.68.71-20.68.89-60.61.89s-44.93-.17-60.61-.89c-15.64-.71-26.33-3.2-35.68-6.83-9.81-3.69-18.7-9.48-26.04-16.96-7.48-7.34-13.26-16.23-16.95-26.04-3.63-9.35-6.12-20.04-6.83-35.68-.72-15.68-.89-20.69-.89-60.61s.17-44.93.89-60.61c.71-15.65,3.2-26.33,6.83-35.68,3.69-9.81,9.48-18.7,16.96-26.04,7.34-7.48,16.23-13.27,26.04-16.96,9.35-3.63,20.04-6.12,35.68-6.83,15.68-.71,20.68-.89,60.61-.89s44.93.17,60.61.89c15.65.71,26.33,3.2,35.68,6.82,9.81,3.69,18.7,9.48,26.04,16.96,7.48,7.34,13.27,16.23,16.95,26.04,3.64,9.35,6.12,20.04,6.84,35.68.71,15.68.88,20.68.88,60.61s-.17,44.93-.89,60.61Z"/>
    </g>
  </g>
</svg>