<?xml version="1.0" encoding="UTF-8"?>
<svg id="Layer_2" xmlns="http://www.w3.org/2000/svg" xmlns:xlink="http://www.w3.org/1999/xlink" viewBox="0 0 1851.4 632.71">
  <defs>
    <style>
      .cls-1 {
        fill: #ffbf23;
        fill-rule: evenodd;
      }

      .cls-2, .cls-3 {
        fill: #0af;
      }

      .cls-4 {
        clip-path: url(#clippath-1);
      }

      .cls-3 {
        clip-path: url(#clippath);
      }
    </style>
    <clipPath id="clippath">
      <path class="cls-2" d="M74.31,416.74l36.95-21.36c1.25-.71,1.84-2.09,1.55-3.47-.46-2.01-.71-4.05-.71-6.14,0-7.73,3.13-14.71,8.19-19.77,5.06-5.06,12.04-8.15,19.73-8.15s14.71,3.09,19.77,8.15c5.02,5.06,8.15,12.04,8.15,19.77s-3.13,14.67-8.15,19.73c-5.06,5.06-12.04,8.19-19.77,8.19-6.9,0-13.25-2.55-18.14-6.73-1.04-.88-2.51-1-3.68-.33l-37.28,21.52c-1,.59-1.59,1.59-1.59,2.8v75.9c0,1.21.59,2.22,1.59,2.8l63.65,36.78c1.04.59,2.21.59,3.26,0l41.67-24.07c1.38-.79,1.96-2.47,1.38-3.97-1.17-3.09-1.84-6.48-1.84-9.99,0-7.73,3.13-14.71,8.19-19.73,5.06-5.06,12.04-8.19,19.73-8.19s14.71,3.13,19.77,8.19c5.02,5.02,8.15,11.99,8.15,19.73s-3.13,14.67-8.15,19.73c-5.06,5.06-12.04,8.19-19.77,8.19-5.39,0-10.41-1.55-14.67-4.18-1.04-.63-2.26-.67-3.3-.04l-34.77,20.06c-1.04.59-1.63,1.63-1.63,2.8s.59,2.21,1.63,2.8l53.83,31.05c1,.63,2.22.63,3.22,0l74.52-43.42c1-.59,1.59-1.63,1.59-2.8v-239.94c0-1.17-.59-2.22-1.59-2.8l-61.35-35.4c-1.09-.63-2.34-.63-3.39.08-4.39,2.88-9.65,4.56-15.3,4.56-7.73,0-14.71-3.13-19.77-8.19-5.02-5.02-8.15-11.99-8.15-19.73s3.13-14.67,8.15-19.73c5.06-5.06,12.04-8.19,19.77-8.19s14.67,3.13,19.73,8.19,8.19,12.04,8.19,19.73c0,3.3-.59,6.48-1.63,9.4-.54,1.46.04,3.09,1.42,3.89l49.07,28.34c1.04.59,2.22.59,3.26,0,1-.59,1.59-1.63,1.59-2.8V46.24c0-1.21-.59-2.22-1.59-2.8L221.3.44c-1.04-.59-2.21-.59-3.22,0l-73.1,42.21c-1.04.58-1.63,1.59-1.63,2.8v63.86c0,1.42.88,2.59,2.22,3.05,4.14,1.38,7.86,3.72,10.91,6.77,5.06,5.06,8.19,12.04,8.19,19.73s-3.13,14.67-8.19,19.73c-5.06,5.06-12.04,8.19-19.73,8.19s-14.71-3.13-19.77-8.19c-5.02-5.06-8.15-12.04-8.15-19.73s3.13-14.67,8.15-19.73c3.05-3.05,6.77-5.39,10.95-6.77,1.34-.46,2.22-1.63,2.22-3.05v-52.49c0-1.21-.59-2.22-1.63-2.8-1.04-.59-2.21-.59-3.22,0l-44.38,25.62c-1,.59-1.59,1.59-1.59,2.76v75.98c0,1.17.59,2.17,1.59,2.76l69.42,40.08c1,.59,2.17.59,3.22,0l53.08-30.63c1.04-.59,1.63-1.63,1.63-2.8v-52.33c0-1.38-.88-2.59-2.22-3.05-4.14-1.38-7.9-3.72-10.91-6.73-5.06-5.06-8.19-12.04-8.19-19.77s3.13-14.67,8.19-19.73c5.06-5.06,12.04-8.19,19.73-8.19s14.67,3.13,19.73,8.19c5.06,5.06,8.19,12.04,8.19,19.73s-3.13,14.71-8.19,19.77c-3.01,3.01-6.73,5.35-10.91,6.73-1.34.46-2.22,1.67-2.22,3.05v59.89c0,1.17-.59,2.21-1.59,2.8l-59.72,34.48c-1,.59-1.63,1.59-1.63,2.76v85.84c0,1.21.63,2.22,1.63,2.8l68.92,39.79c1,.59,1.59,1.63,1.59,2.8v81.83c0,1.17-.59,2.22-1.59,2.8l-46.18,26.66c-1.21.71-1.84,2.09-1.5,3.51.46,2.01.71,4.14.71,6.27,0,7.73-3.13,14.71-8.19,19.77-5.06,5.02-12.04,8.15-19.73,8.15s-14.71-3.13-19.73-8.15c-5.06-5.06-8.19-12.04-8.19-19.77s3.13-14.67,8.19-19.73c5.02-5.06,12.04-8.19,19.73-8.19,6.85,0,13.17,2.51,18.05,6.65,1.04.88,2.47,1,3.68.33l39.91-23.07c1.04-.59,1.63-1.63,1.63-2.8v-66.66c0-1.21-.59-2.21-1.63-2.8l-62.27-35.98c-1.04-.59-2.21-.59-3.22,0l-42.55,24.57c-1.3.75-1.88,2.17-1.5,3.59.59,2.26.88,4.6.88,7.02,0,7.73-3.13,14.71-8.19,19.77-5.06,5.02-12.04,8.15-19.73,8.15s-14.67-3.13-19.73-8.15c-5.06-5.06-8.19-12.04-8.19-19.77s3.13-14.67,8.19-19.73c5.06-5.06,12.04-8.19,19.73-8.19,6.6,0,12.66,2.3,17.43,6.1,1.04.88,2.47.96,3.64.29l43.42-25.08c1-.59,1.59-1.59,1.59-2.8v-85.84c0-1.17-.59-2.17-1.59-2.76l-69.42-40.08c-1-.59-2.17-.59-3.22,0L1.63,212.67c-1.04.59-1.63,1.59-1.63,2.8v68.42c0,1.17.59,2.17,1.63,2.8,1,.59,2.17.59,3.22,0l53.29-30.76c1.34-.79,1.92-2.38,1.42-3.85-.92-2.8-1.46-5.85-1.46-8.99,0-7.69,3.13-14.67,8.19-19.73,5.06-5.06,12.04-8.19,19.73-8.19s14.71,3.13,19.73,8.19c5.06,5.06,8.19,12.04,8.19,19.73s-3.13,14.71-8.19,19.77c-5.02,5.06-11.99,8.15-19.73,8.15-5.81,0-11.24-1.76-15.71-4.85-1.04-.71-2.34-.75-3.43-.13L1.63,303.73c-1.04.58-1.63,1.59-1.63,2.8v67.29c0,1.21.59,2.22,1.63,2.8l69.46,40.12c1,.59,2.17.59,3.22,0h0ZM100.72,243.09c0-4.05-1.67-7.73-4.3-10.36-2.67-2.67-6.35-4.3-10.41-4.3s-7.73,1.63-10.41,4.3c-2.63,2.63-4.3,6.31-4.3,10.36s1.67,7.73,4.3,10.41c2.67,2.67,6.35,4.3,10.41,4.3s7.73-1.63,10.41-4.3c2.63-2.67,4.3-6.35,4.3-10.41h0ZM151.42,138.86c0-4.05-1.63-7.73-4.3-10.41-2.63-2.63-6.31-4.3-10.36-4.3s-7.73,1.67-10.41,4.3c-2.67,2.67-4.3,6.35-4.3,10.41s1.63,7.73,4.3,10.41c2.67,2.63,6.35,4.3,10.41,4.3s7.73-1.67,10.36-4.3c2.67-2.67,4.3-6.35,4.3-10.41h0ZM204.45,96.31c2.67,2.67,6.35,4.3,10.41,4.3s7.73-1.63,10.41-4.3c2.63-2.67,4.3-6.35,4.3-10.41s-1.67-7.73-4.3-10.36c-2.67-2.67-6.35-4.3-10.41-4.3s-7.73,1.63-10.41,4.3c-2.63,2.63-4.3,6.31-4.3,10.36s1.67,7.73,4.3,10.41h0ZM205.33,251.58c2.67,2.63,6.35,4.3,10.41,4.3s7.73-1.67,10.36-4.3c2.67-2.67,4.3-6.35,4.3-10.41s-1.63-7.73-4.3-10.41c-2.63-2.63-6.31-4.3-10.36-4.3s-7.73,1.67-10.41,4.3c-2.67,2.67-4.3,6.35-4.3,10.41s1.63,7.73,4.3,10.41h0ZM206.59,497.99c-2.67,2.67-4.3,6.35-4.3,10.41s1.63,7.73,4.3,10.41c2.63,2.63,6.31,4.26,10.36,4.26s7.73-1.63,10.41-4.26c2.63-2.67,4.3-6.35,4.3-10.41s-1.67-7.73-4.3-10.41c-2.67-2.63-6.35-4.3-10.41-4.3s-7.73,1.67-10.36,4.3h0ZM143.77,457.32c-2.63,2.63-4.3,6.31-4.3,10.36s1.67,7.73,4.3,10.41c2.67,2.67,6.35,4.3,10.41,4.3s7.73-1.63,10.41-4.3c2.63-2.67,4.3-6.35,4.3-10.41s-1.67-7.73-4.3-10.36c-2.67-2.67-6.35-4.3-10.41-4.3s-7.73,1.63-10.41,4.3h0ZM129.64,375.37c-2.67,2.67-4.3,6.31-4.3,10.41s1.63,7.73,4.3,10.36c2.63,2.67,6.31,4.3,10.36,4.3s7.73-1.63,10.41-4.3c2.63-2.63,4.3-6.31,4.3-10.36s-1.67-7.73-4.3-10.41c-2.67-2.67-6.35-4.3-10.41-4.3s-7.73,1.63-10.36,4.3h0ZM79.24,365.34c4.05,0,7.73-1.63,10.41-4.3,2.63-2.67,4.3-6.35,4.3-10.41s-1.67-7.73-4.3-10.36c-2.67-2.67-6.35-4.3-10.41-4.3s-7.73,1.63-10.41,4.3c-2.63,2.63-4.3,6.31-4.3,10.36s1.67,7.73,4.3,10.41c2.67,2.67,6.35,4.3,10.41,4.3h0Z"/>
    </clipPath>
    <clipPath id="clippath-1">
      <path class="cls-3" d="M221.3,632.71c-1.04-.59-2.21-.59-3.22,0"/>
    </clipPath>
  </defs>
  <g id="Layer_5">
    <g>
      <path d="M703.03,382.45h43.19v-135.94h-43.19v-17.29h106.27v17.29h-43.19v135.94h43.19v17.29h-106.27v-17.29Z"/>
      <path d="M838.65,277.73h16.01v24.98c7.76-18.97,24.02-28.34,45.13-28.34,24.5,0,44.4,13.45,44.4,47.55v77.82h-19.17v-73.97c0-25.94-13.83-34.58-30.33-34.58-19.89,0-36.88,12.73-36.88,40.11v68.45h-19.17v-122.01Z"/>
      <path d="M994.41,365.87v-71.57h-28.63v-16.57h28.63v-29.54l19.17-6.24v35.79h40.76v16.57h-40.76v69.41c0,14.17,5.09,19.45,19.17,19.45h21.59v16.57h-25.47c-24.5,0-34.45-9.85-34.45-33.86Z"/>
      <path d="M1073.01,338.74c0-34.34,20.62-64.37,58.47-64.37s56.04,28.58,56.04,57.88v12.01h-95.59c2.18,25.94,18.92,42.99,41.49,42.99,16.5,0,30.57-9.13,35.66-23.78h17.47c-5.34,24.02-26.2,39.63-53.86,39.63-35.66,0-59.68-27.38-59.68-64.37ZM1169.09,329.61c-.24-20.89-13.59-39.39-37.36-39.39s-36.63,17.05-39.55,39.39h76.91Z"/>
      <path d="M1220.03,217.21h19.17v182.53h-19.17v-182.53Z"/>
      <path d="M1385.52,222.74c12.82,4.17,23.2,11.83,31.15,22.95,6.37,9,10.71,18.74,13.03,29.21,2.32,10.48,3.48,20.46,3.48,29.95,0,24.06-4.88,44.43-14.64,61.13-13.24,22.5-33.67,33.75-61.3,33.75h-78.8v-180.92h78.8c11.33.16,20.76,1.47,28.29,3.93ZM1315.51,250.24v118.08h35.27c18.05,0,30.63-8.8,37.75-26.39,3.89-9.65,5.84-21.15,5.84-34.49,0-18.41-2.92-32.55-8.75-42.41-5.84-9.86-17.45-14.79-34.83-14.79h-35.27Z"/>
      <path d="M1565.91,384.1c-10.9,13.32-27.44,19.98-49.64,19.98s-38.74-6.66-49.64-19.98c-10.9-13.32-16.35-29.35-16.35-48.1s5.45-34.41,16.35-47.92,27.44-20.27,49.64-20.27,38.74,6.76,49.64,20.27,16.35,29.49,16.35,47.92-5.45,34.78-16.35,48.1ZM1538.9,365.63c5.29-6.95,7.94-16.82,7.94-29.63s-2.65-22.66-7.94-29.57c-5.29-6.91-12.87-10.36-22.74-10.36s-17.47,3.46-22.8,10.36c-5.33,6.91-8,16.76-8,29.57s2.67,22.68,8,29.63c5.33,6.95,12.93,10.42,22.8,10.42s17.45-3.47,22.74-10.42Z"/>
      <path d="M1683.66,317.77c-.63-4.77-2.26-9.07-4.87-12.9-3.8-5.16-9.7-7.74-17.69-7.74-11.4,0-19.2,5.59-23.39,16.77-2.22,5.93-3.32,13.8-3.32,23.63s1.11,16.88,3.32,22.58c4.04,10.63,11.64,15.95,22.8,15.95,7.92,0,13.54-2.11,16.86-6.33s5.34-9.69,6.06-16.42h34.47c-.79,10.16-4.51,19.78-11.15,28.85-10.6,14.62-26.29,21.93-47.08,21.93s-36.09-6.1-45.89-18.29-14.7-28.01-14.7-47.44c0-21.93,5.41-38.99,16.24-51.19,10.83-12.2,25.77-18.29,44.82-18.29,16.21,0,29.47,3.6,39.78,10.79,10.32,7.19,16.42,19.9,18.32,38.11h-34.59Z"/>
      <path d="M1767.53,358.93c.71,5.94,2.26,10.16,4.64,12.67,4.21,4.46,11.98,6.68,23.33,6.68,6.67,0,11.96-.98,15.89-2.93,3.93-1.95,5.89-4.88,5.89-8.79s-1.58-6.61-4.75-8.56c-3.17-1.95-14.94-5.32-35.32-10.09-14.67-3.59-25.01-8.09-31.01-13.49-6-5.32-9-12.98-9-22.99,0-11.8,4.69-21.95,14.07-30.43,9.38-8.48,22.58-12.72,39.59-12.72s29.3,3.19,39.47,9.56c10.17,6.37,16.01,17.38,17.51,33.01h-33.76c-.48-4.3-1.7-7.7-3.68-10.2-3.72-4.53-10.06-6.8-19.01-6.8-7.37,0-12.61,1.13-15.74,3.4-3.13,2.27-4.69,4.92-4.69,7.97,0,3.83,1.66,6.61,4.99,8.33,3.32,1.8,15.07,4.89,35.25,9.26,13.45,3.13,23.53,7.86,30.24,14.19,6.63,6.41,9.95,14.42,9.95,24.04,0,12.67-4.77,23-14.3,31.02-9.54,8.01-24.27,12.02-44.21,12.02s-35.35-4.24-45.05-12.72c-9.7-8.48-14.54-19.29-14.54-32.43h34.24Z"/>
    </g>
    <g id="Layer_3">
      <g>
        <path class="cls-2" d="M74.31,416.74l36.95-21.36c1.25-.71,1.84-2.09,1.55-3.47-.46-2.01-.71-4.05-.71-6.14,0-7.73,3.13-14.71,8.19-19.77,5.06-5.06,12.04-8.15,19.73-8.15s14.71,3.09,19.77,8.15c5.02,5.06,8.15,12.04,8.15,19.77s-3.13,14.67-8.15,19.73c-5.06,5.06-12.04,8.19-19.77,8.19-6.9,0-13.25-2.55-18.14-6.73-1.04-.88-2.51-1-3.68-.33l-37.28,21.52c-1,.59-1.59,1.59-1.59,2.8v75.9c0,1.21.59,2.22,1.59,2.8l63.65,36.78c1.04.59,2.21.59,3.26,0l41.67-24.07c1.38-.79,1.96-2.47,1.38-3.97-1.17-3.09-1.84-6.48-1.84-9.99,0-7.73,3.13-14.71,8.19-19.73,5.06-5.06,12.04-8.19,19.73-8.19s14.71,3.13,19.77,8.19c5.02,5.02,8.15,11.99,8.15,19.73s-3.13,14.67-8.15,19.73c-5.06,5.06-12.04,8.19-19.77,8.19-5.39,0-10.41-1.55-14.67-4.18-1.04-.63-2.26-.67-3.3-.04l-34.77,20.06c-1.04.59-1.63,1.63-1.63,2.8s.59,2.21,1.63,2.8l53.83,31.05c1,.63,2.22.63,3.22,0l74.52-43.42c1-.59,1.59-1.63,1.59-2.8v-239.94c0-1.17-.59-2.22-1.59-2.8l-61.35-35.4c-1.09-.63-2.34-.63-3.39.08-4.39,2.88-9.65,4.56-15.3,4.56-7.73,0-14.71-3.13-19.77-8.19-5.02-5.02-8.15-11.99-8.15-19.73s3.13-14.67,8.15-19.73c5.06-5.06,12.04-8.19,19.77-8.19s14.67,3.13,19.73,8.19,8.19,12.04,8.19,19.73c0,3.3-.59,6.48-1.63,9.4-.54,1.46.04,3.09,1.42,3.89l49.07,28.34c1.04.59,2.22.59,3.26,0,1-.59,1.59-1.63,1.59-2.8V46.24c0-1.21-.59-2.22-1.59-2.8L221.3.44c-1.04-.59-2.21-.59-3.22,0l-73.1,42.21c-1.04.58-1.63,1.59-1.63,2.8v63.86c0,1.42.88,2.59,2.22,3.05,4.14,1.38,7.86,3.72,10.91,6.77,5.06,5.06,8.19,12.04,8.19,19.73s-3.13,14.67-8.19,19.73c-5.06,5.06-12.04,8.19-19.73,8.19s-14.71-3.13-19.77-8.19c-5.02-5.06-8.15-12.04-8.15-19.73s3.13-14.67,8.15-19.73c3.05-3.05,6.77-5.39,10.95-6.77,1.34-.46,2.22-1.63,2.22-3.05v-52.49c0-1.21-.59-2.22-1.63-2.8-1.04-.59-2.21-.59-3.22,0l-44.38,25.62c-1,.59-1.59,1.59-1.59,2.76v75.98c0,1.17.59,2.17,1.59,2.76l69.42,40.08c1,.59,2.17.59,3.22,0l53.08-30.63c1.04-.59,1.63-1.63,1.63-2.8v-52.33c0-1.38-.88-2.59-2.22-3.05-4.14-1.38-7.9-3.72-10.91-6.73-5.06-5.06-8.19-12.04-8.19-19.77s3.13-14.67,8.19-19.73c5.06-5.06,12.04-8.19,19.73-8.19s14.67,3.13,19.73,8.19c5.06,5.06,8.19,12.04,8.19,19.73s-3.13,14.71-8.19,19.77c-3.01,3.01-6.73,5.35-10.91,6.73-1.34.46-2.22,1.67-2.22,3.05v59.89c0,1.17-.59,2.21-1.59,2.8l-59.72,34.48c-1,.59-1.63,1.59-1.63,2.76v85.84c0,1.21.63,2.22,1.63,2.8l68.92,39.79c1,.59,1.59,1.63,1.59,2.8v81.83c0,1.17-.59,2.22-1.59,2.8l-46.18,26.66c-1.21.71-1.84,2.09-1.5,3.51.46,2.01.71,4.14.71,6.27,0,7.73-3.13,14.71-8.19,19.77-5.06,5.02-12.04,8.15-19.73,8.15s-14.71-3.13-19.73-8.15c-5.06-5.06-8.19-12.04-8.19-19.77s3.13-14.67,8.19-19.73c5.02-5.06,12.04-8.19,19.73-8.19,6.85,0,13.17,2.51,18.05,6.65,1.04.88,2.47,1,3.68.33l39.91-23.07c1.04-.59,1.63-1.63,1.63-2.8v-66.66c0-1.21-.59-2.21-1.63-2.8l-62.27-35.98c-1.04-.59-2.21-.59-3.22,0l-42.55,24.57c-1.3.75-1.88,2.17-1.5,3.59.59,2.26.88,4.6.88,7.02,0,7.73-3.13,14.71-8.19,19.77-5.06,5.02-12.04,8.15-19.73,8.15s-14.67-3.13-19.73-8.15c-5.06-5.06-8.19-12.04-8.19-19.77s3.13-14.67,8.19-19.73c5.06-5.06,12.04-8.19,19.73-8.19,6.6,0,12.66,2.3,17.43,6.1,1.04.88,2.47.96,3.64.29l43.42-25.08c1-.59,1.59-1.59,1.59-2.8v-85.84c0-1.17-.59-2.17-1.59-2.76l-69.42-40.08c-1-.59-2.17-.59-3.22,0L1.63,212.67c-1.04.59-1.63,1.59-1.63,2.8v68.42c0,1.17.59,2.17,1.63,2.8,1,.59,2.17.59,3.22,0l53.29-30.76c1.34-.79,1.92-2.38,1.42-3.85-.92-2.8-1.46-5.85-1.46-8.99,0-7.69,3.13-14.67,8.19-19.73,5.06-5.06,12.04-8.19,19.73-8.19s14.71,3.13,19.73,8.19c5.06,5.06,8.19,12.04,8.19,19.73s-3.13,14.71-8.19,19.77c-5.02,5.06-11.99,8.15-19.73,8.15-5.81,0-11.24-1.76-15.71-4.85-1.04-.71-2.34-.75-3.43-.13L1.63,303.73c-1.04.58-1.63,1.59-1.63,2.8v67.29c0,1.21.59,2.22,1.63,2.8l69.46,40.12c1,.59,2.17.59,3.22,0h0ZM100.72,243.09c0-4.05-1.67-7.73-4.3-10.36-2.67-2.67-6.35-4.3-10.41-4.3s-7.73,1.63-10.41,4.3c-2.63,2.63-4.3,6.31-4.3,10.36s1.67,7.73,4.3,10.41c2.67,2.67,6.35,4.3,10.41,4.3s7.73-1.63,10.41-4.3c2.63-2.67,4.3-6.35,4.3-10.41h0ZM151.42,138.86c0-4.05-1.63-7.73-4.3-10.41-2.63-2.63-6.31-4.3-10.36-4.3s-7.73,1.67-10.41,4.3c-2.67,2.67-4.3,6.35-4.3,10.41s1.63,7.73,4.3,10.41c2.67,2.63,6.35,4.3,10.41,4.3s7.73-1.67,10.36-4.3c2.67-2.67,4.3-6.35,4.3-10.41h0ZM204.45,96.31c2.67,2.67,6.35,4.3,10.41,4.3s7.73-1.63,10.41-4.3c2.63-2.67,4.3-6.35,4.3-10.41s-1.67-7.73-4.3-10.36c-2.67-2.67-6.35-4.3-10.41-4.3s-7.73,1.63-10.41,4.3c-2.63,2.63-4.3,6.31-4.3,10.36s1.67,7.73,4.3,10.41h0ZM205.33,251.58c2.67,2.63,6.35,4.3,10.41,4.3s7.73-1.67,10.36-4.3c2.67-2.67,4.3-6.35,4.3-10.41s-1.63-7.73-4.3-10.41c-2.63-2.63-6.31-4.3-10.36-4.3s-7.73,1.67-10.41,4.3c-2.67,2.67-4.3,6.35-4.3,10.41s1.63,7.73,4.3,10.41h0ZM206.59,497.99c-2.67,2.67-4.3,6.35-4.3,10.41s1.63,7.73,4.3,10.41c2.63,2.63,6.31,4.26,10.36,4.26s7.73-1.63,10.41-4.26c2.63-2.67,4.3-6.35,4.3-10.41s-1.67-7.73-4.3-10.41c-2.67-2.63-6.35-4.3-10.41-4.3s-7.73,1.67-10.36,4.3h0ZM143.77,457.32c-2.63,2.63-4.3,6.31-4.3,10.36s1.67,7.73,4.3,10.41c2.67,2.67,6.35,4.3,10.41,4.3s7.73-1.63,10.41-4.3c2.63-2.67,4.3-6.35,4.3-10.41s-1.67-7.73-4.3-10.36c-2.67-2.67-6.35-4.3-10.41-4.3s-7.73,1.63-10.41,4.3h0ZM129.64,375.37c-2.67,2.67-4.3,6.31-4.3,10.41s1.63,7.73,4.3,10.36c2.63,2.67,6.31,4.3,10.36,4.3s7.73-1.63,10.41-4.3c2.63-2.63,4.3-6.31,4.3-10.36s-1.67-7.73-4.3-10.41c-2.67-2.67-6.35-4.3-10.41-4.3s-7.73,1.63-10.36,4.3h0ZM79.24,365.34c4.05,0,7.73-1.63,10.41-4.3,2.63-2.67,4.3-6.35,4.3-10.41s-1.67-7.73-4.3-10.36c-2.67-2.67-6.35-4.3-10.41-4.3s-7.73,1.63-10.41,4.3c-2.63,2.63-4.3,6.31-4.3,10.36s1.67,7.73,4.3,10.41c2.67,2.67,6.35,4.3,10.41,4.3h0Z"/>
        <path class="cls-2" d="M221.3,632.71c-1.04-.59-2.21-.59-3.22,0"/>
        <g class="cls-4">
          <polygon class="cls-2" points="-6.06 634.94 -3.26 632.69 309.61 1019.65 306.81 1021.91 -6.06 634.94"/>
          <polygon class="cls-2" points="-4.22 633.44 -1.42 631.14 311.44 1018.15 308.64 1020.41 -4.22 633.44"/>
          <polygon class="cls-2" points="-2.34 631.89 .46 629.64 313.33 1016.64 310.53 1018.9 -2.34 631.89"/>
          <polygon class="cls-2" points="-.46 630.39 2.34 628.13 315.16 1015.14 312.41 1017.4 -.46 630.39"/>
          <polygon class="cls-2" points="1.38 628.88 4.18 626.63 317.05 1013.63 314.25 1015.89 1.38 628.88"/>
          <polygon class="cls-2" points="3.26 627.38 6.06 625.12 318.93 1012.13 316.13 1014.39 3.26 627.38"/>
          <polygon class="cls-2" points="5.1 625.88 7.9 623.62 320.76 1010.63 317.96 1012.88 5.1 625.88"/>
          <polygon class="cls-2" points="6.98 624.37 9.78 622.11 322.65 1009.12 319.85 1011.38 6.98 624.37"/>
          <polygon class="cls-2" points="8.86 622.87 11.62 620.61 324.48 1007.62 321.73 1009.87 8.86 622.87"/>
          <polygon class="cls-2" points="10.7 621.36 13.5 619.1 326.37 1006.07 323.56 1008.37 10.7 621.36"/>
          <polygon class="cls-2" points="12.58 619.86 15.38 617.6 328.25 1004.57 325.45 1006.82 12.58 619.86"/>
          <polygon class="cls-2" points="14.42 618.35 17.22 616.1 330.08 1003.06 327.28 1005.32 14.42 618.35"/>
          <polygon class="cls-2" points="16.3 616.85 19.1 614.59 331.97 1001.56 329.17 1003.81 16.3 616.85"/>
          <polygon class="cls-2" points="18.18 615.34 20.94 613.09 333.8 1000.05 331 1002.31 18.18 615.34"/>
          <polygon class="cls-2" points="20.02 613.84 22.82 611.58 335.69 998.55 332.88 1000.8 20.02 613.84"/>
          <polygon class="cls-2" points="21.9 612.33 24.7 610.08 337.57 997.04 334.77 999.3 21.9 612.33"/>
          <polygon class="cls-2" points="23.74 610.83 26.54 608.57 339.4 995.54 336.6 997.8 23.74 610.83"/>
          <polygon class="cls-2" points="25.62 609.33 28.42 607.07 341.29 994.03 338.49 996.29 25.62 609.33"/>
          <polygon class="cls-2" points="27.46 607.82 30.26 605.56 343.12 992.53 340.32 994.79 27.46 607.82"/>
          <polygon class="cls-2" points="29.34 606.32 32.14 604.06 345 991.02 342.2 993.28 29.34 606.32"/>
          <polygon class="cls-2" points="31.22 604.81 34.02 602.55 346.84 989.52 344.09 991.78 31.22 604.81"/>
          <polygon class="cls-2" points="33.06 603.31 35.86 601.01 348.72 988.02 345.92 990.27 33.06 603.31"/>
          <polygon class="cls-2" points="34.94 601.8 37.74 599.5 350.61 986.51 347.81 988.77 34.94 601.8"/>
          <polygon class="cls-2" points="36.78 600.26 39.58 598 352.44 985.01 349.64 987.26 36.78 600.26"/>
          <polygon class="cls-2" points="38.66 598.75 41.46 596.49 354.32 983.5 351.52 985.76 38.66 598.75"/>
          <polygon class="cls-2" points="40.54 597.25 43.3 594.99 356.16 982 353.41 984.25 40.54 597.25"/>
          <polygon class="cls-2" points="42.38 595.74 45.18 593.49 358.04 980.49 355.24 982.75 42.38 595.74"/>
          <polygon class="cls-2" points="44.26 594.24 47.06 591.98 359.93 978.99 357.13 981.25 44.26 594.24"/>
          <polygon class="cls-2" points="46.1 592.73 48.9 590.48 361.76 977.48 358.96 979.74 46.1 592.73"/>
          <polygon class="cls-2" points="47.98 591.23 50.78 588.97 363.64 975.94 360.84 978.24 47.98 591.23"/>
          <polygon class="cls-2" points="49.86 589.72 52.62 587.47 365.48 974.43 362.68 976.73 49.86 589.72"/>
          <polygon class="cls-2" points="51.7 588.22 54.5 585.96 367.36 972.93 364.56 975.19 51.7 588.22"/>
          <polygon class="cls-2" points="53.58 586.71 56.38 584.46 369.25 971.42 366.45 973.68 53.58 586.71"/>
          <polygon class="cls-2" points="55.42 585.21 58.22 582.95 371.08 969.92 368.28 972.18 55.42 585.21"/>
          <polygon class="cls-2" points="57.3 583.71 60.1 581.45 372.96 968.41 370.16 970.67 57.3 583.71"/>
          <polygon class="cls-2" points="59.14 582.2 61.94 579.94 374.8 966.91 372 969.17 59.14 582.2"/>
          <polygon class="cls-2" points="61.02 580.7 63.82 578.44 376.68 965.41 373.88 967.66 61.02 580.7"/>
          <polygon class="cls-2" points="62.9 579.19 65.7 576.94 378.52 963.9 375.76 966.16 62.9 579.19"/>
          <polygon class="cls-2" points="64.74 577.69 67.54 575.43 380.4 962.4 377.6 964.65 64.74 577.69"/>
          <polygon class="cls-2" points="66.62 576.18 69.42 573.93 382.28 960.89 379.48 963.15 66.62 576.18"/>
          <polygon class="cls-2" points="68.46 574.68 71.26 572.42 384.12 959.39 381.32 961.64 68.46 574.68"/>
          <polygon class="cls-2" points="70.34 573.17 73.14 570.92 386 957.88 383.2 960.14 70.34 573.17"/>
          <polygon class="cls-2" points="72.22 571.67 74.98 569.37 387.84 956.38 385.08 958.63 72.22 571.67"/>
          <polygon class="cls-2" points="74.06 570.12 76.86 567.87 389.72 954.87 386.92 957.13 74.06 570.12"/>
          <polygon class="cls-2" points="75.94 568.62 78.74 566.36 391.6 953.37 388.8 955.63 75.94 568.62"/>
          <polygon class="cls-2" points="77.78 567.11 80.58 564.86 393.44 951.86 390.64 954.12 77.78 567.11"/>
          <polygon class="cls-2" points="79.66 565.61 82.46 563.35 395.32 950.36 392.52 952.62 79.66 565.61"/>
          <polygon class="cls-2" points="81.54 564.1 84.3 561.85 397.16 948.86 394.36 951.11 81.54 564.1"/>
          <polygon class="cls-2" points="83.38 562.6 86.18 560.34 399.04 947.35 396.24 949.61 83.38 562.6"/>
          <polygon class="cls-2" points="85.26 561.1 88.06 558.84 400.92 945.85 398.12 948.1 85.26 561.1"/>
          <polygon class="cls-2" points="87.1 559.59 89.9 557.33 402.76 944.3 399.96 946.6 87.1 559.59"/>
          <polygon class="cls-2" points="88.98 558.09 91.78 555.83 404.64 942.8 401.84 945.05 88.98 558.09"/>
          <polygon class="cls-2" points="90.86 556.58 93.62 554.32 406.48 941.29 403.68 943.55 90.86 556.58"/>
          <polygon class="cls-2" points="92.7 555.08 95.5 552.82 408.36 939.79 405.56 942.04 92.7 555.08"/>
          <polygon class="cls-2" points="94.58 553.57 97.38 551.32 410.2 938.28 407.44 940.54 94.58 553.57"/>
          <polygon class="cls-2" points="96.42 552.07 99.22 549.81 412.08 936.78 409.28 939.03 96.42 552.07"/>
          <polygon class="cls-2" points="98.3 550.56 101.1 548.31 413.96 935.27 411.16 937.53 98.3 550.56"/>
          <polygon class="cls-2" points="100.14 549.06 102.94 546.8 415.8 933.77 413 936.02 100.14 549.06"/>
          <polygon class="cls-2" points="102.02 547.55 104.82 545.3 417.68 932.26 414.88 934.52 102.02 547.55"/>
          <polygon class="cls-2" points="103.9 546.05 106.7 543.79 419.52 930.76 416.76 933.02 103.9 546.05"/>
          <polygon class="cls-2" points="105.74 544.55 108.54 542.29 421.4 929.25 418.6 931.51 105.74 544.55"/>
          <polygon class="cls-2" points="107.62 543.04 110.42 540.78 423.28 927.75 420.48 930.01 107.62 543.04"/>
          <polygon class="cls-2" points="109.46 541.54 112.26 539.24 425.12 926.24 422.32 928.5 109.46 541.54"/>
          <polygon class="cls-2" points="111.34 540.03 114.14 537.73 427 924.74 424.2 927 111.34 540.03"/>
          <polygon class="cls-2" points="113.22 538.49 115.98 536.23 428.84 923.24 426.04 925.49 113.22 538.49"/>
          <polygon class="cls-2" points="115.06 536.98 117.86 534.72 430.72 921.73 427.92 923.99 115.06 536.98"/>
          <polygon class="cls-2" points="116.94 535.48 119.74 533.22 432.6 920.23 429.8 922.48 116.94 535.48"/>
          <polygon class="cls-2" points="118.78 533.97 121.58 531.71 434.44 918.72 431.64 920.98 118.78 533.97"/>
          <polygon class="cls-2" points="120.66 532.47 123.46 530.21 436.32 917.22 433.52 919.47 120.66 532.47"/>
          <polygon class="cls-2" points="122.54 530.96 125.3 528.71 438.16 915.71 435.36 917.97 122.54 530.96"/>
          <polygon class="cls-2" points="124.38 529.46 127.18 527.2 440.04 914.17 437.24 916.47 124.38 529.46"/>
          <polygon class="cls-2" points="126.26 527.95 129.06 525.7 441.92 912.66 439.12 914.96 126.26 527.95"/>
          <polygon class="cls-2" points="128.1 526.45 130.9 524.19 443.76 911.16 440.96 913.41 128.1 526.45"/>
          <polygon class="cls-2" points="129.98 524.94 132.78 522.69 445.64 909.65 442.84 911.91 129.98 524.94"/>
          <polygon class="cls-2" points="131.82 523.44 134.62 521.18 447.48 908.15 444.68 910.41 131.82 523.44"/>
          <polygon class="cls-2" points="133.7 521.93 136.5 519.68 449.36 906.64 446.56 908.9 133.7 521.93"/>
          <polygon class="cls-2" points="135.58 520.43 138.38 518.17 451.2 905.14 448.44 907.4 135.58 520.43"/>
          <polygon class="cls-2" points="137.42 518.93 140.22 516.67 453.08 903.63 450.28 905.89 137.42 518.93"/>
          <polygon class="cls-2" points="139.3 517.42 142.1 515.16 454.96 902.13 452.16 904.39 139.3 517.42"/>
          <polygon class="cls-2" points="141.14 515.92 143.94 513.66 456.8 900.63 454 902.88 141.14 515.92"/>
          <polygon class="cls-2" points="143.02 514.41 145.82 512.16 458.68 899.12 455.88 901.38 143.02 514.41"/>
          <polygon class="cls-2" points="144.9 512.91 147.66 510.65 460.52 897.62 457.76 899.87 144.9 512.91"/>
          <polygon class="cls-2" points="146.74 511.4 149.54 509.15 462.4 896.11 459.6 898.37 146.74 511.4"/>
          <polygon class="cls-2" points="148.62 509.9 151.42 507.6 464.28 894.61 461.48 896.86 148.62 509.9"/>
          <polygon class="cls-2" points="150.46 508.35 153.26 506.1 466.12 893.1 463.32 895.36 150.46 508.35"/>
          <polygon class="cls-2" points="152.34 506.85 155.14 504.59 468 891.6 465.2 893.85 152.34 506.85"/>
          <polygon class="cls-2" points="154.22 505.34 156.98 503.09 469.84 890.09 467.04 892.35 154.22 505.34"/>
          <polygon class="cls-2" points="156.06 503.84 158.86 501.58 471.72 888.59 468.92 890.85 156.06 503.84"/>
          <polygon class="cls-2" points="157.94 502.33 160.74 500.08 473.6 887.08 470.8 889.34 157.94 502.33"/>
          <polygon class="cls-2" points="159.78 500.83 162.58 498.57 475.44 885.58 472.64 887.84 159.78 500.83"/>
          <polygon class="cls-2" points="161.66 499.32 164.46 497.07 477.32 884.08 474.52 886.33 161.66 499.32"/>
          <polygon class="cls-2" points="163.5 497.82 166.3 495.56 479.16 882.53 476.36 884.83 163.5 497.82"/>
          <polygon class="cls-2" points="165.38 496.32 168.18 494.06 481.04 881.02 478.24 883.28 165.38 496.32"/>
          <polygon class="cls-2" points="167.26 494.81 170.06 492.55 482.88 879.52 480.12 881.78 167.26 494.81"/>
          <polygon class="cls-2" points="169.1 493.31 171.9 491.05 484.76 878.02 481.96 880.27 169.1 493.31"/>
          <polygon class="cls-2" points="170.98 491.8 173.78 489.55 486.64 876.51 483.84 878.77 170.98 491.8"/>
          <polygon class="cls-2" points="172.82 490.3 175.62 488.04 488.48 875.01 485.68 877.26 172.82 490.3"/>
          <polygon class="cls-2" points="174.7 488.79 177.5 486.54 490.36 873.5 487.56 875.76 174.7 488.79"/>
          <polygon class="cls-2" points="176.58 487.29 179.34 485.03 492.2 872 489.44 874.25 176.58 487.29"/>
          <polygon class="cls-2" points="178.42 485.78 181.22 483.53 494.08 870.49 491.28 872.75 178.42 485.78"/>
          <polygon class="cls-2" points="180.3 484.28 183.1 482.02 495.96 868.99 493.16 871.24 180.3 484.28"/>
          <polygon class="cls-2" points="182.14 482.77 184.94 480.52 497.8 867.48 495 869.74 182.14 482.77"/>
          <polygon class="cls-2" points="184.02 481.27 186.82 479.01 499.68 865.98 496.88 868.24 184.02 481.27"/>
          <polygon class="cls-2" points="185.9 479.77 188.66 477.47 501.52 864.47 498.72 866.73 185.9 479.77"/>
          <polygon class="cls-2" points="187.74 478.26 190.54 475.96 503.4 862.97 500.6 865.23 187.74 478.26"/>
          <polygon class="cls-2" points="189.62 476.71 192.42 474.46 505.28 861.46 502.48 863.72 189.62 476.71"/>
          <polygon class="cls-2" points="191.46 475.21 194.26 472.95 507.12 859.96 504.32 862.22 191.46 475.21"/>
          <polygon class="cls-2" points="193.34 473.71 196.14 471.45 509 858.46 506.2 860.71 193.34 473.71"/>
          <polygon class="cls-2" points="195.18 472.2 197.98 469.94 510.84 856.95 508.04 859.21 195.18 472.2"/>
          <polygon class="cls-2" points="197.06 470.7 199.86 468.44 512.72 855.45 509.92 857.7 197.06 470.7"/>
          <polygon class="cls-2" points="198.94 469.19 201.74 466.93 514.56 853.94 511.8 856.2 198.94 469.19"/>
          <polygon class="cls-2" points="200.78 467.69 203.58 465.43 516.44 852.4 513.64 854.69 200.78 467.69"/>
          <polygon class="cls-2" points="202.66 466.18 205.46 463.93 518.32 850.89 515.52 853.19 202.66 466.18"/>
          <polygon class="cls-2" points="204.5 464.68 207.3 462.42 520.16 849.39 517.36 851.64 204.5 464.68"/>
          <polygon class="cls-2" points="206.38 463.17 209.18 460.92 522.04 847.88 519.24 850.14 206.38 463.17"/>
          <polygon class="cls-2" points="208.26 461.67 211.02 459.41 523.88 846.38 521.12 848.63 208.26 461.67"/>
          <polygon class="cls-2" points="210.1 460.16 212.9 457.91 525.76 844.87 522.96 847.13 210.1 460.16"/>
          <polygon class="cls-2" points="211.98 458.66 214.78 456.4 527.64 843.37 524.84 845.63 211.98 458.66"/>
          <polygon class="cls-2" points="213.82 457.16 216.62 454.9 529.48 841.86 526.68 844.12 213.82 457.16"/>
          <polygon class="cls-2" points="215.7 455.65 218.5 453.39 531.36 840.36 528.56 842.62 215.7 455.65"/>
          <polygon class="cls-2" points="217.58 454.15 220.34 451.89 533.2 838.85 530.4 841.11 217.58 454.15"/>
          <polygon class="cls-2" points="219.42 452.64 222.22 450.38 535.08 837.35 532.28 839.61 219.42 452.64"/>
          <polygon class="cls-2" points="221.3 451.14 224.1 448.88 536.96 835.85 534.16 838.1 221.3 451.14"/>
          <polygon class="cls-2" points="223.14 449.63 225.94 447.38 538.8 834.34 536 836.6 223.14 449.63"/>
          <polygon class="cls-2" points="225.02 448.13 227.82 445.83 540.68 832.84 537.88 835.09 225.02 448.13"/>
          <polygon class="cls-2" points="226.9 446.58 229.66 444.32 542.52 831.33 539.72 833.59 226.9 446.58"/>
          <polygon class="cls-2" points="228.74 445.08 231.54 442.82 544.4 829.83 541.6 832.08 228.74 445.08"/>
          <polygon class="cls-2" points="230.62 443.57 228.74 445.08 541.6 832.08 543.48 830.58 230.62 443.57"/>
        </g>
      </g>
    </g>
    <g id="Layer_2-2" data-name="Layer_2">
      <path class="cls-1" d="M316.63,47.63h168.44v125.64h128.72v370.56h-297.16V47.63h0ZM359.04,443.37h214.09c7.98,0,14.5,7.65,14.5,17.01h0c0,9.36-6.52,17.01-14.5,17.01h-214.09c-7.97,0-14.5-7.65-14.5-17.01h0c0-9.36,6.53-17.01,14.5-17.01h0ZM359.04,363h214.09c7.98,0,14.5,7.65,14.5,17.01h0c0,9.36-6.52,17.01-14.5,17.01h-214.09c-7.97,0-14.5-7.65-14.5-17.01h0c0-9.36,6.53-17.01,14.5-17.01h0ZM359.02,282.64h213.83c7.97,0,14.49,7.65,14.49,17h0c0,9.36-6.52,17.01-14.49,17.01h-213.83c-7.96,0-14.48-7.65-14.48-17.01h0c0-9.36,6.52-17.01,14.48-17.01h0ZM361.1,202.27h140.27c9.11,0,16.56,7.65,16.56,17.01h0c0,9.36-7.45,17.01-16.56,17.01h-140.27c-9.11,0-16.56-7.65-16.56-17.01h0c0-9.36,7.45-17.01,16.56-17.01h0ZM496.7,49.36h4.68l110.7,107.17v4.53h-115.38V49.36h0Z"/>
    </g>
  </g>
</svg>