<?xml version="1.0" encoding="UTF-8"?>
<svg id="Layer_2" xmlns="http://www.w3.org/2000/svg" viewBox="0 0 512 512">
  <g id="Layer_2-2" data-name="Layer_2">
    <path d="M256,0C114.64,0,0,114.64,0,256s114.64,256,256,256,256-114.64,256-256S397.36,0,256,0ZM181.61,387h-62.35v-187.57h62.35v187.57ZM150.44,173.81h-.41c-20.92,0-34.45-14.4-34.45-32.4s13.95-32.41,35.27-32.41,34.45,14,34.86,32.41c0,18-13.53,32.4-35.27,32.4ZM406.42,387h-62.34v-100.35c0-25.22-9.03-42.42-31.59-42.42-17.22,0-27.48,11.6-31.99,22.8-1.65,4.01-2.05,9.61-2.05,15.21v104.75h-62.34s.82-169.98,0-187.57h62.34v26.56c8.29-12.78,23.11-30.96,56.19-30.96,41.02,0,71.78,26.81,71.78,84.42v107.55Z"/>
  </g>
</svg>