<?xml version="1.0" encoding="UTF-8"?>
<svg id="Layer_2" xmlns="http://www.w3.org/2000/svg" viewBox="0 0 511.71 511.71">
  <defs>
  </defs>
  <g id="Layer_2-2" data-name="Layer_2">
    <g>
      <path d="M255.85,511.71C114.57,511.71,0,397.13,0,255.85S114.57,0,255.85,0s255.85,114.57,255.85,255.85-114.57,255.85-255.85,255.85Z"/>
      <path d="M418.68,173.52c-3.89-14.74-15.4-26.3-30.04-30.24-26.51-7.16-132.74-7.16-132.74-7.16,0,0-106.28,0-132.74,7.16-14.63,3.94-26.15,15.5-30.04,30.24-7.16,26.66-7.16,82.33-7.16,82.33,0,0,0,55.67,7.11,82.33,3.89,14.74,15.4,26.3,30.04,30.24,26.51,7.16,132.74,7.16,132.74,7.16,0,0,106.28,0,132.74-7.16,14.63-3.94,26.15-15.5,30.04-30.24,7.11-26.66,7.11-82.33,7.11-82.33,0,0,0-55.67-7.06-82.33h0ZM221.11,306.36v-101.01l88.78,50.51-88.78,50.51Z"/>
    </g>
  </g>
</svg>
